# xmcd
#
# Track frame offsets:
# 150
# 16702
# 36560
# 58513
# 78129
# 99454
# 116927
# 135548
# 152520
# 171647
# 196439
#
# Disc length: 3001 seconds
#
#
# Revision: 0
# Processed by: cddbd v1.5.1PL0 Copyright (c) Steve Scherf et al.
# Submitted via: FreeRIP 2.91 
#
DISCID=8e0bb70b
DTITLE=Geron Davis and Kindred Souls - Let It Rain
DYEAR=2002
DGENRE=Contemporary Christian
TTITLE0=Let It Rain
TTITLE1=There's A Light On
TTITLE2=Flow
TTITLE3=Fill The Air
TTITLE4=Go
TTITLE5=Nothing But The Blood
TTITLE6=Evermore
TTITLE7=Freedom
TTITLE8=Undenying Love
TTITLE9=Don't Be Afraid
TTITLE10=Holy Ground
EXTD=
EXTT0=
EXTT1=
EXTT2=
EXTT3=
EXTT4=
EXTT5=
EXTT6=
EXTT7=
EXTT8=
EXTT9=
EXTT10=
PLAYORDER=
